<svg width="40" height="32" viewBox="0 0 40 32" fill="none" xmlns="http://www.w3.org/2000/svg">
<path d="M21.8182 15.0588H34.5455V17.8824H21.8182V15.0588ZM21.8182 10.3529H34.5455V13.1765H21.8182V10.3529ZM21.8182 19.7647H34.5455V22.5882H21.8182V19.7647ZM36.3636 0H3.63636C2.67194 0 1.74702 0.396637 1.06507 1.10266C0.383116 1.80868 0 2.76624 0 3.76471V28.2353C0 29.2338 0.383116 30.1913 1.06507 30.8973C1.74702 31.6034 2.67194 32 3.63636 32H36.3636C37.3281 32 38.253 31.6034 38.9349 30.8973C39.6169 30.1913 40 29.2338 40 28.2353V3.76471C40 2.76624 39.6169 1.80868 38.9349 1.10266C38.253 0.396637 37.3281 0 36.3636 0ZM36.3636 28.2353H20V3.76471H36.3636" fill="white"/>
</svg>
